<svg width="19" height="19" viewBox="0 0 19 19" fill="none" xmlns="http://www.w3.org/2000/svg">
<path d="M12.4214 4.70461C11.4102 4.18698 10.2931 3.90945 9.15719 3.89361C4.88054 3.89361 1.38281 8.151 1.38281 9.53213C1.38281 11.013 5.06416 14.8138 9.1256 14.8138C13.2226 14.8138 16.9316 11.01 16.9316 9.53213C16.9316 8.36721 14.8515 5.90853 12.4214 4.70461ZM9.15719 13.908C8.25658 13.908 7.37619 13.6409 6.62736 13.1406C5.87853 12.6402 5.29489 11.9291 4.95024 11.097C4.6056 10.2649 4.51542 9.34938 4.69112 8.46607C4.86682 7.58277 5.30051 6.7714 5.93733 6.13457C6.57416 5.49775 7.38553 5.06406 8.26883 4.88836C9.15214 4.71266 10.0677 4.80284 10.8998 5.14748C11.7318 5.49213 12.443 6.07577 12.9433 6.8246C13.4437 7.57343 13.7108 8.45382 13.7108 9.35443C13.7108 9.95241 13.593 10.5445 13.3641 11.097C13.1353 11.6495 12.7999 12.1514 12.377 12.5743C11.9542 12.9971 11.4522 13.3325 10.8998 13.5614C10.3473 13.7902 9.75517 13.908 9.15719 13.908V13.908Z" fill="#9899A5"/>
<path d="M10.4758 9.3954C10.1267 9.3954 9.79194 9.25677 9.54507 9.00999C9.2982 8.76321 9.15944 8.42849 9.15931 8.07943C9.16181 7.85051 9.22476 7.62631 9.34178 7.42955C9.4588 7.23278 9.62574 7.07043 9.82569 6.95893C9.60941 6.89384 9.38514 6.85912 9.15931 6.85577C8.665 6.85577 8.1818 7.00235 7.7708 7.27698C7.35981 7.55162 7.03949 7.94196 6.85035 8.39865C6.66121 8.85534 6.61174 9.35786 6.70821 9.84266C6.80468 10.3275 7.04275 10.7728 7.39232 11.1223C7.74188 11.4718 8.18723 11.7097 8.67205 11.8061C9.15687 11.9025 9.65939 11.8529 10.116 11.6637C10.5727 11.4745 10.963 11.1541 11.2375 10.743C11.5121 10.332 11.6586 9.84873 11.6585 9.35443C11.6553 9.15409 11.6263 8.95499 11.5721 8.76209C11.4588 8.95261 11.2985 9.11088 11.1065 9.22176C10.9146 9.33264 10.6974 9.39243 10.4758 9.3954V9.3954Z" fill="#9899A5"/>
</svg>
