<svg width="19" height="19" viewBox="0 0 19 19" fill="none" xmlns="http://www.w3.org/2000/svg">
<path d="M7.55618 5.09456C8.38336 4.76206 9.29001 4.67996 10.1635 4.85846C11.0369 5.03697 11.8387 5.46822 12.469 6.09861C13.0994 6.729 13.5307 7.53074 13.7092 8.40419C13.8877 9.27765 13.8056 10.1843 13.4731 11.0115L14.9268 12.4652C16.2077 11.3846 17.0222 10.1886 17.0222 9.49757C17.0222 8.33068 14.9421 5.87398 12.512 4.67006C11.5007 4.15242 10.3837 3.8749 9.24778 3.85905C8.40583 3.86639 7.57193 4.02368 6.78516 4.32354L7.55618 5.09456Z" fill="#FFFFFF" fill-opacity="0.5"/>
<path d="M17.0461 16.2588L11.3864 10.599C11.6214 10.2135 11.7467 9.77112 11.7487 9.31961C11.7457 9.11929 11.7168 8.92019 11.6628 8.72727C11.5492 8.91734 11.3888 9.07511 11.1969 9.18555C11.0049 9.29598 10.7879 9.35539 10.5665 9.35811C10.2179 9.35811 9.88348 9.21982 9.63668 8.97357C9.38988 8.72733 9.25083 8.39324 9.25005 8.04461C9.25255 7.81569 9.3155 7.59149 9.43252 7.39473C9.54954 7.19796 9.71647 7.03561 9.91642 6.92411C9.70014 6.85906 9.47588 6.82434 9.25005 6.82095C8.79853 6.82294 8.35613 6.94822 7.97061 7.18326L2.31086 1.52351C2.23507 1.44788 2.13238 1.40541 2.02531 1.40541C1.91824 1.40541 1.81554 1.44788 1.73976 1.52351L1.45445 1.80931C1.41688 1.84678 1.38708 1.89128 1.36674 1.94028C1.34641 1.98928 1.33594 2.04181 1.33594 2.09487C1.33594 2.14792 1.34641 2.20045 1.36674 2.24945C1.38708 2.29845 1.41688 2.34296 1.45445 2.38042L4.5869 5.51288C2.70328 6.86537 1.47715 8.68087 1.47715 9.49731C1.47715 10.9781 5.15851 14.7789 9.21994 14.7789C10.5035 14.7533 11.7628 14.4238 12.8944 13.8174L16.1912 17.1142C16.2287 17.1518 16.2732 17.1816 16.3222 17.2019C16.3712 17.2223 16.4237 17.2327 16.4768 17.2327C16.5298 17.2327 16.5823 17.2223 16.6313 17.2019C16.6803 17.1816 16.7249 17.1518 16.7623 17.1142L17.0476 16.8289C17.1229 16.753 17.165 16.6504 17.1647 16.5435C17.1644 16.4367 17.1218 16.3343 17.0461 16.2588ZM9.25005 13.8732C8.40063 13.876 7.56746 13.6405 6.84519 13.1934C6.12292 12.7464 5.54051 12.1057 5.16411 11.3443C4.78772 10.5828 4.63244 9.73101 4.71591 8.88571C4.79938 8.0404 5.11826 7.23544 5.63632 6.56229L7.11419 8.04017C6.87866 8.4255 6.75318 8.86799 6.75139 9.31961C6.75132 9.64778 6.81591 9.97274 6.94145 10.276C7.06699 10.5792 7.25103 10.8547 7.48305 11.0867C7.71508 11.3188 7.99056 11.5029 8.29374 11.6285C8.59692 11.7541 8.92188 11.8188 9.25005 11.8188C9.70171 11.8168 10.1442 11.6911 10.5295 11.4555L12.0074 12.9333C11.2174 13.5427 10.2478 13.8732 9.25005 13.8732Z" fill="#FFFFFF" fill-opacity="0.5"/>
</svg>
